# xmcd
#
# Track frame offsets:
#	150
#	12641
#	24872
#	37848
#	53082
#	66482
#	79746
#	92665
#	105970
#	117628
#	129994
#	140136
#	154330
#	168207
#	183021
#	195216
#	208614
#	222249
#	234930
#	245713
#	256612
#	268988
#	280537
#	290815
#
# Disc length: 3989 seconds
#
# Revision: 0
# Processed by: cddbd v1.5.2PL0 Copyright (c) Steve Scherf et al.
# Submitted via: audiograbber 1.83.01
#
DISCID=500f9318
DTITLE=The Greatest Country Music Recordings Of All Time - Record 95 and 96
DYEAR=1900
DGENRE=
TTITLE0=Bradley Kincaid - Methodist Pie
TTITLE1=Mac And Bob - When The Roses Bloom Again
TTITLE2=Rambling Red Foley And The Cumberland Ridge Runners - I Got The Freight
TTITLE2=Train Blues
TTITLE3=Uncle Dave Macon And The Fruit Jar Drinkers - Rock About My Saro Jane
TTITLE4=Ray Whitley - Last Flight Of Wiley Post
TTITLE5=Dick Hartman's Tennessee Ramblers - Who Broke The Lock?
TTITLE6=Coon Creek Girls - Banjo Pickin' Girl
TTITLE7=Lulu Belle And Scotty - A Prisoner's Dream
TTITLE8=Hank Penny And His Radio Cowboys - Tobacco State Swing
TTITLE9=Roy Acuff - I'll Reap My Harvest In Heaven
TTITLE10=Merle Travis - So Round, So Firm, So Fully Packed
TTITLE11=Bob Atcher - Red River Valley
TTITLE12=Sleepy Hollow Gang - I'm Lonesome Now, But I Won't Be Lonesome Long
TTITLE13=Kenny Roberts - When I'd Yoo-Hoo In The Valley
TTITLE14=Billy Folger And The Barn Dance Boys - If I'd Only Been True To You
TTITLE15=Molly O'day And The Cumberland Mountain Folks - The Tear Stained Lette
TTITLE15=r
TTITLE16=Claude Casey - Juke-Box Gal
TTITLE17=Doc Williams And His Boder Riders - Night Wind Waltz
TTITLE18=Bonnie Lou - Seven Lonely Days
TTITLE19=Slim Whitman - Rose Marie
TTITLE20=Porter Wagoner - Company's Comin'
TTITLE21=Sonny James - That's Me Without You
TTITLE22=Reno And Smiley - Banjo Signal
TTITLE23=Collins Kids - Hop, Skip And Jump
EXTD=
EXTT0=
EXTT1=
EXTT2=
EXTT3=
EXTT4=
EXTT5=
EXTT6=
EXTT7=
EXTT8=
EXTT9=
EXTT10=
EXTT11=
EXTT12=
EXTT13=
EXTT14=
EXTT15=
EXTT16=
EXTT17=
EXTT18=
EXTT19=
EXTT20=
EXTT21=
EXTT22=
EXTT23=
PLAYORDER=
